<svg width="1024" height="1024" viewBox="0 0 1024 1024" fill="none" xmlns="http://www.w3.org/2000/svg">
<path d="M712.78 603.766L627.87 681.839C584.21 719.899 532.913 748.181 477.424 764.784L499.952 869.896C501.103 875.263 503.5 880.284 506.95 884.554C510.399 888.824 514.804 892.223 519.809 894.476C524.814 896.73 530.279 897.776 535.762 897.528C541.246 897.281 546.594 895.748 551.376 893.052L688.06 815.96C707.298 804.271 722.325 786.773 730.975 765.991C739.624 745.209 741.449 722.216 736.185 700.33L712.78 603.766ZM346.297 399.156L419.401 312.36L328.233 290.363C306.069 282.635 281.857 283.188 260.069 291.92C238.281 300.653 220.389 316.975 209.698 337.872L132.691 474.368C129.993 479.149 128.457 484.498 128.208 489.982C127.96 495.466 129.005 500.932 131.259 505.938C133.513 510.944 136.913 515.349 141.185 518.798C145.456 522.246 150.479 524.642 155.848 525.79L263.394 548.844C281.223 494.115 309.364 443.305 346.297 399.156V399.156ZM677.681 400.569C688.064 400.569 698.214 397.49 706.848 391.721C715.482 385.952 722.211 377.753 726.184 368.16C730.158 358.567 731.198 348.011 729.172 337.827C727.146 327.643 722.146 318.288 714.804 310.946C707.461 303.604 698.107 298.604 687.923 296.578C677.739 294.552 667.183 295.592 657.59 299.565C647.997 303.539 639.797 310.268 634.028 318.902C628.26 327.535 625.181 337.686 625.181 348.069C625.186 361.991 630.719 375.342 640.563 385.187C650.408 395.031 663.758 400.564 677.681 400.569V400.569Z" fill="#6030A2"/>
<path d="M883.038 164.17C881.458 158.175 878.317 152.707 873.933 148.323C869.549 143.94 864.081 140.798 858.086 139.219C786.289 120.556 710.679 122.557 639.97 144.992C569.26 167.427 506.328 209.383 458.423 266.026L346.297 399.156C290.283 465.965 254.749 547.525 243.963 634.039C243.271 639.355 243.81 644.76 245.537 649.836C247.265 654.911 250.135 659.522 253.926 663.313L362.43 771.817C365.678 775.068 369.536 777.647 373.782 779.407C378.028 781.166 382.579 782.072 387.175 782.072C388.183 782.072 389.191 782.02 390.217 781.935C478.059 774.677 561.302 739.615 627.867 681.84L756.075 563.954C812.918 516.175 855.028 453.238 877.504 382.465C899.98 311.692 901.899 235.991 883.038 164.17V164.17ZM677.68 400.568C667.296 400.568 657.146 397.489 648.512 391.72C639.879 385.951 633.149 377.752 629.176 368.159C625.202 358.565 624.163 348.009 626.188 337.825C628.214 327.641 633.214 318.287 640.556 310.945C647.899 303.602 657.253 298.602 667.437 296.576C677.621 294.551 688.177 295.59 697.77 299.564C707.364 303.538 715.563 310.267 721.332 318.9C727.1 327.534 730.18 337.684 730.18 348.068C730.175 361.99 724.642 375.341 714.797 385.185C704.953 395.03 691.602 400.563 677.68 400.568V400.568Z" fill="#F73B95"/>
</svg>
